<svg width="50" height="50" viewBox="0 0 50 50" fill="none" xmlns="http://www.w3.org/2000/svg">
    <style>
        .rotate {
        animation: rotation 2s infinite linear;
        transform-origin: center center;
        }

        @keyframes rotation {
        from {
        transform: rotate(0deg);
        }
        to {
        transform: rotate(359deg);
        }
        }
    </style>

    <!-- Rotating Outer Rays -->
    <g class="rotate">
        <path
            d="M49.0649 23.4875L39.8164 18.8681L43.088 9.06294C43.5275 7.73475 42.2677 6.47492 40.9493 6.92416L31.1441 10.1958L26.515 0.937546C25.8899 -0.312515 24.1125 -0.312515 23.4875 0.937546L18.8681 10.186L9.05317 6.9144C7.72498 6.47492 6.46516 7.73475 6.9144 9.05317L10.186 18.8583L0.937546 23.4875C-0.312515 24.1125 -0.312515 25.8899 0.937546 26.515L10.186 31.1343L6.9144 40.9493C6.47492 42.2774 7.73475 43.5373 9.05317 43.088L18.8583 39.8164L23.4777 49.0649C24.1027 50.3149 25.8802 50.3149 26.5052 49.0649L31.1246 39.8164L40.9297 43.088C42.2579 43.5275 43.5177 42.2677 43.0685 40.9493L39.7969 31.1441L49.0453 26.5247C50.3149 25.8899 50.3149 24.1125 49.0649 23.4875Z"
            fill="#FED50D" />
    </g>

    <!-- White Ring Between Head and Face -->
    <circle cx="25" cy="25" r="14.5" fill="none" stroke="white" stroke-width="3" />

    <!-- Static Yellow Inner Circle (Face Background) -->
    <circle cx="25" cy="25" r="12" fill="#FED50D" />

    <!-- Static Face (Eyes + Mouth) -->
    <circle cx="20.0389" cy="21.3317" r="0.646416" fill="#61481C" />
    <path
        d="M27.7958 27.7959C27.7958 28.4816 27.5234 29.1393 27.0385 29.6242C26.5536 30.1091 25.8959 30.3815 25.2102 30.3815C24.5244 30.3815 23.8667 30.1091 23.3818 29.6242C22.8969 29.1393 22.6245 28.4816 22.6245 27.7959L25.2102 27.7959H27.7958Z"
        fill="#61481C" />
    <circle cx="29.7352" cy="21.3317" r="0.646416" fill="#61481C" />
</svg>